<svg width="31" height="31" viewBox="0 0 31 31" fill="none" xmlns="http://www.w3.org/2000/svg">
<path d="M10.0623 2.52759H20.6778C24.7218 2.52759 28.0075 5.81333 28.0075 9.85733V20.4728C28.0075 22.4168 27.2353 24.2811 25.8607 25.6557C24.4861 27.0303 22.6217 27.8026 20.6778 27.8026H10.0623C6.01829 27.8026 2.73254 24.5168 2.73254 20.4728V9.85733C2.73254 7.91336 3.50478 6.04901 4.87937 4.67442C6.25397 3.29983 8.11832 2.52759 10.0623 2.52759ZM9.80953 5.05508C8.60293 5.05508 7.44575 5.5344 6.59256 6.3876C5.73936 7.2408 5.26004 8.39798 5.26004 9.60458V20.7256C5.26004 23.2404 7.29467 25.2751 9.80953 25.2751H20.9305C22.1371 25.2751 23.2943 24.7957 24.1475 23.9425C25.0007 23.0893 25.48 21.9322 25.48 20.7256V9.60458C25.48 7.08972 23.4454 5.05508 20.9305 5.05508H9.80953ZM22.0047 6.95071C22.4237 6.95071 22.8255 7.11714 23.1217 7.41339C23.418 7.70963 23.5844 8.11143 23.5844 8.53039C23.5844 8.94935 23.418 9.35115 23.1217 9.6474C22.8255 9.94365 22.4237 10.1101 22.0047 10.1101C21.5857 10.1101 21.1839 9.94365 20.8877 9.6474C20.5914 9.35115 20.425 8.94935 20.425 8.53039C20.425 8.11143 20.5914 7.70963 20.8877 7.41339C21.1839 7.11714 21.5857 6.95071 22.0047 6.95071ZM15.37 8.84633C17.0459 8.84633 18.6531 9.51205 19.8381 10.697C21.023 11.882 21.6888 13.4892 21.6888 15.1651C21.6888 16.8409 21.023 18.4481 19.8381 19.6331C18.6531 20.8181 17.0459 21.4838 15.37 21.4838C13.6942 21.4838 12.087 20.8181 10.902 19.6331C9.71701 18.4481 9.05128 16.8409 9.05128 15.1651C9.05128 13.4892 9.71701 11.882 10.902 10.697C12.087 9.51205 13.6942 8.84633 15.37 8.84633ZM15.37 11.3738C14.3645 11.3738 13.4002 11.7733 12.6892 12.4843C11.9782 13.1953 11.5788 14.1596 11.5788 15.1651C11.5788 16.1706 11.9782 17.1349 12.6892 17.8459C13.4002 18.5569 14.3645 18.9563 15.37 18.9563C16.3755 18.9563 17.3398 18.5569 18.0508 17.8459C18.7618 17.1349 19.1613 16.1706 19.1613 15.1651C19.1613 14.1596 18.7618 13.1953 18.0508 12.4843C17.3398 11.7733 16.3755 11.3738 15.37 11.3738Z" fill="white"/>
</svg>
