<svg width="31" height="31" viewBox="0 0 31 31" fill="none" xmlns="http://www.w3.org/2000/svg">
<path d="M24.2795 6.81918C23.1207 5.64908 21.7407 4.72131 20.2197 4.08994C18.6988 3.45857 17.0674 3.13621 15.4206 3.14167C8.52056 3.14167 2.89688 8.76535 2.89688 15.6654C2.89688 17.877 3.4782 20.0253 4.56502 21.921L2.79578 28.4166L9.43045 26.6727C11.2629 27.671 13.3228 28.2018 15.4206 28.2018C22.3207 28.2018 27.9444 22.5781 27.9444 15.6781C27.9444 12.3291 26.6427 9.18239 24.2795 6.81918ZM15.4206 26.0787C13.5503 26.0787 11.7178 25.5732 10.1129 24.6254L9.73375 24.3979L5.79086 25.4342L6.83977 21.5924L6.58702 21.2006C5.54765 19.5414 4.99587 17.6233 4.9947 15.6654C4.9947 9.928 9.67057 5.25213 15.408 5.25213C18.1882 5.25213 20.8042 6.33895 22.763 8.3104C23.7331 9.27573 24.5018 10.4241 25.0246 11.6888C25.5474 12.9536 25.8139 14.3095 25.8086 15.6781C25.8339 21.4155 21.158 26.0787 15.4206 26.0787ZM21.1328 18.294C20.8168 18.1424 19.2751 17.3841 18.997 17.2704C18.7064 17.1693 18.5042 17.1187 18.2893 17.422C18.0745 17.738 17.4805 18.4457 17.3036 18.6479C17.1267 18.8627 16.9371 18.888 16.6212 18.7237C16.3052 18.572 15.2942 18.2308 14.1063 17.1693C13.1711 16.3352 12.5519 15.3116 12.3623 14.9956C12.1854 14.6797 12.3371 14.5154 12.5014 14.3511C12.6404 14.2121 12.8173 13.9846 12.9689 13.8077C13.1206 13.6308 13.1838 13.4918 13.2849 13.2896C13.386 13.0747 13.3354 12.8978 13.2596 12.7462C13.1838 12.5945 12.5519 11.0527 12.2992 10.4209C12.0464 9.81426 11.781 9.89008 11.5915 9.87745H10.9849C10.77 9.87745 10.4415 9.95327 10.1508 10.2692C9.87277 10.5851 9.06397 11.3434 9.06397 12.8852C9.06397 14.4269 10.1887 15.9182 10.3404 16.1204C10.492 16.3352 12.5519 19.4946 15.686 20.8468C16.4316 21.1754 17.0129 21.3649 17.4679 21.5039C18.2135 21.744 18.8959 21.7061 19.4393 21.6303C20.0459 21.5418 21.297 20.8721 21.5498 20.1391C21.8152 19.4061 21.8152 18.7869 21.7267 18.6479C21.6383 18.5088 21.4487 18.4457 21.1328 18.294Z" fill="white"/>
</svg>
