<svg width="28" height="29" viewBox="0 0 28 29" fill="none" xmlns="http://www.w3.org/2000/svg">
<path d="M27.9443 5.95025V23.2873C27.9443 24.2712 27.1945 25.021 26.2106 25.021H24.4769V9.28676L14.0747 16.759L3.67249 9.28676V25.021H1.93878C0.954905 25.021 0.205078 24.2712 0.205078 23.2873V5.95025C0.205078 5.45788 0.390584 5.02445 0.701784 4.71758C0.863773 4.5553 1.05678 4.4273 1.26931 4.34122C1.48183 4.25514 1.70952 4.21273 1.93878 4.21654H2.51697L14.0747 12.5964L25.6324 4.21654H26.2106C26.703 4.21654 27.1364 4.40205 27.4476 4.71758C27.7588 5.02445 27.9443 5.45788 27.9443 5.95025Z" fill="white"/>
</svg>
